<?xml version="1.0" encoding="UTF-8"?>
<svg id="Layer_1" data-name="Layer 1" xmlns="http://www.w3.org/2000/svg" viewBox="0 0 1080 1080">
  <defs>
    <style>
      .cls-1 {
        fill: #fff;
      }

      .cls-2 {
        fill: #7e2cff;
      }

      .cls-3 {
        fill: #f2efe8;
      }
    </style>
  </defs>
  <g>
    <path class="cls-3" d="M392.58,477.75v9.92c0,1.68-1.36,3.04-3.04,3.04h-58.02c-1.68,0-3.04,1.36-3.04,3.04v13.55c0,1.68,1.36,3.04,3.04,3.04h45.54c1.68,0,3.04,1.36,3.04,3.04v9.92c0,1.68-1.36,3.04-3.04,3.04h-45.54c-1.68,0-3.04,1.36-3.04,3.04v29.55c0,1.68-1.36,3.04-3.04,3.04h-10.04c-1.68,0-3.04-1.36-3.04-3.04v-81.16c0-1.68,1.36-3.04,3.04-3.04h74.13c1.68,0,3.04,1.36,3.04,3.04Z"/>
    <path class="cls-3" d="M488.12,479.55l-36.18,49c-.39.52-.59,1.15-.59,1.8v28.55c0,1.68-1.36,3.04-3.04,3.04h-9.92c-1.68,0-3.04-1.36-3.04-3.04v-28.56c0-.65-.2-1.27-.58-1.79-11.42-15.54-24.62-33.15-36.24-49.02-1.47-2.01-.03-4.83,2.45-4.83h11.58c.93,0,1.81.42,2.38,1.15l26.02,32.9c1.22,1.54,3.55,1.54,4.77,0l25.91-32.89c.58-.73,1.46-1.16,2.39-1.16h11.65c2.49,0,3.92,2.84,2.44,4.84Z"/>
    <path class="cls-3" d="M571.55,474.71h10.04c1.68,0,3.04,1.36,3.04,3.04v81.16c0,1.68-1.36,3.04-3.04,3.04h-12.99c-.9,0-1.75-.4-2.32-1.08l-47.52-56.51c-1.82-2.17-5.36-.88-5.36,1.95v52.61c0,1.68-1.36,3.04-3.04,3.04h-9.92c-1.68,0-3.04-1.36-3.04-3.04v-81.16c0-1.68,1.36-3.04,3.04-3.04h12.99c.9,0,1.75.4,2.33,1.08l47.4,56.5c1.82,2.17,5.36.88,5.36-1.95v-52.59c0-1.68,1.36-3.04,3.04-3.04Z"/>
    <path class="cls-3" d="M618.08,490.71c-2.15,0-3.89,1.74-3.89,3.89v47.48c0,2.15,1.74,3.88,3.88,3.88h64.08c1.68,0,3.04,1.36,3.04,3.04v9.92c0,1.68-1.36,3.04-3.04,3.04h-64.08c-10.98,0-19.88-8.9-19.88-19.88v-47.48c0-10.98,8.9-19.88,19.88-19.88h64.08c1.68,0,3.04,1.36,3.04,3.04v9.92c0,1.68-1.36,3.04-3.04,3.04h-64.08Z"/>
    <path class="cls-3" d="M767.95,474.71c9.21,0,16.84,7.51,16.84,16.84v53.55c0,9.33-7.63,16.84-16.84,16.84h-50.51c-10.98,0-19.88-8.9-19.88-19.88v-47.48c0-10.98,8.9-19.88,19.88-19.88h50.51ZM767.95,545.96c.36,0,.73-.36.73-.85v-53.55c0-.48-.36-.85-.73-.85h-50.51c-2.15,0-3.89,1.74-3.89,3.89v47.48c0,2.15,1.74,3.88,3.88,3.88h50.52Z"/>
    <path class="cls-3" d="M865.6,474.71c11,0,20,9,20,20v47.36c0,10.98-8.9,19.88-19.88,19.88h-64.32c-1.68,0-3.04-1.36-3.04-3.04v-81.16c0-1.68,1.36-3.04,3.04-3.04h64.2ZM869.49,494.59c0-2.15-1.74-3.89-3.89-3.89h-47.36c-2.15,0-3.89,1.74-3.89,3.89v47.48c0,2.15,1.74,3.88,3.88,3.88h47.36c2.15,0,3.89-1.74,3.89-3.89v-47.48Z"/>
    <path class="cls-3" d="M976.59,490.71h-58.02c-1.68,0-3.04,1.36-3.04,3.04v13.55c0,1.68,1.36,3.04,3.04,3.04h45.54c1.68,0,3.04,1.36,3.04,3.04v9.92c0,1.68-1.36,3.04-3.04,3.04h-45.54c-1.68,0-3.04,1.36-3.04,3.04v13.55c0,1.68,1.36,3.04,3.04,3.04h58.02c1.68,0,3.04,1.36,3.04,3.04v9.92c0,1.68-1.36,3.04-3.04,3.04h-74.13c-1.68,0-3.04-1.36-3.04-3.04v-81.16c0-1.68,1.36-3.04,3.04-3.04h74.13c1.68,0,3.04,1.36,3.04,3.04v9.92c0,1.68-1.36,3.04-3.04,3.04Z"/>
  </g>
  <g>
    <path class="cls-2" d="M207.48,520.2h55.98c2.77,0,5.02-2.25,5.02-5.02v-53.72c0-2.77-2.25-5.02-5.02-5.02H105.44c-2.77,0-5.02,2.25-5.02,5.02v49.68c0,1.86,1.06,3.49,2.75,4.25,1.7.76,3.62.46,5-.78l8.6-7.68c1.65-1.47,2.59-3.58,2.59-5.79v-20.74c0-2.77,2.25-5.02,5.02-5.02h120.15c2.77,0,5.02,2.25,5.02,5.02v15.83c0,2.77-2.25,5.02-5.02,5.02h-37.06c-41.26.28-79.59,19.17-105.17,51.81-1.24,1.58-1.92,3.58-1.92,5.63l.04,55.77c0,5.01,4.08,9.09,9.09,9.09h52.44c2.77,0,5.02-2.25,5.02-5.02v-33.78c0-2.77,2.25-5.02,5.02-5.02h91.48c2.77,0,5.02-2.25,5.02-5.02v-8.9c0-2.77-2.25-5.02-5.02-5.02h-110.42c-2.77,0-5.02,2.25-5.02,5.02v33.78c0,2.77-2.25,5.02-5.02,5.02h-19.21c-2.45,0-4.44-1.99-4.44-4.44v-36.41c0-1.09.37-2.12,1.05-2.91,21.88-25.59,53.63-40.41,87.08-40.66Z"/>
    <rect class="cls-2" x="223.21" y="604.63" width="45.27" height="18.93" rx="5.02" ry="5.02"/>
  </g>
  <path class="cls-1" d="M334.38,591.53v3.3h-9.35v18.7h-3.3v-18.7h-9.35v-3.3h22Z"/>
  <path class="cls-1" d="M365.45,594.83h-16.87v6.05h13.57v3.3h-13.57v6.05h16.87v3.3h-20.17v-22h20.17v3.3Z"/>
  <path class="cls-1" d="M381.15,594.83c-.37,0-.67.31-.67.67v14.06c0,.37.31.67.67.67h17.97v3.3h-17.97c-2.2,0-3.97-1.77-3.97-3.97v-14.06c0-2.2,1.77-3.97,3.97-3.97h17.97v3.3h-17.97Z"/>
  <path class="cls-1" d="M429.56,591.53h3.3v22h-3.91l-14.79-17.6v17.6h-3.3v-22h3.91l14.79,17.6v-17.6Z"/>
  <path class="cls-1" d="M462.77,591.51c2.2,0,3.97,1.77,3.97,3.97v14.06c0,2.2-1.77,3.97-3.97,3.97h-14.06c-2.2,0-3.97-1.77-3.97-3.97v-14.06c0-2.2,1.77-3.97,3.97-3.97h14.06ZM462.77,610.21c.37,0,.67-.31.67-.67v-14.06c0-.37-.31-.67-.67-.67h-14.06c-.37,0-.67.31-.67.67v14.06c0,.37.31.67.67.67h14.06Z"/>
  <path class="cls-1" d="M478.69,591.48h3.3v18.73h18.7v3.3h-22v-22.03Z"/>
  <path class="cls-1" d="M528.98,591.51c2.2,0,3.97,1.77,3.97,3.97v14.06c0,2.2-1.77,3.97-3.97,3.97h-14.06c-2.2,0-3.97-1.77-3.97-3.97v-14.06c0-2.2,1.77-3.97,3.97-3.97h14.06ZM528.98,610.21c.37,0,.67-.31.67-.67v-14.06c0-.37-.31-.67-.67-.67h-14.06c-.37,0-.67.31-.67.67v14.06c0,.37.31.67.67.67h14.06Z"/>
  <path class="cls-1" d="M566.87,596.79h-3.3v-1.31c0-.37-.31-.67-.67-.67h-14.06c-.37,0-.67.31-.67.67v14.06c0,.37.31.67.67.67h14.06c.37,0,.67-.31.67-.67v-4.77h-5.19v-3.3h8.49v8.07c0,2.2-1.77,3.97-3.97,3.97h-14.06c-2.2,0-3.97-1.77-3.97-3.97v-14.06c0-2.2,1.77-3.97,3.97-3.97h14.06c2.2,0,3.97,1.77,3.97,3.97v1.31Z"/>
  <path class="cls-1" d="M578.81,591.51h3.3v22h-3.3v-22Z"/>
  <path class="cls-1" d="M612.15,591.51c2.2,0,3.97,1.77,3.97,3.97v18.03h-3.3v-7.7h-15.4v7.7h-3.3v-18.03c0-2.2,1.77-3.97,3.97-3.97h14.06ZM612.82,602.51v-7.03c0-.37-.31-.67-.67-.67h-14.06c-.37,0-.67.31-.67.67v7.03h15.4Z"/>
  <path class="cls-1" d="M665.8,594.81h-16.87v6.05h13.57v3.3h-13.57v6.05h16.87v3.3h-20.17v-22h20.17v3.3Z"/>
  <path class="cls-1" d="M694.98,591.51h3.3v22h-3.3v-22Z"/>
  <path class="cls-1" d="M728.32,591.51c2.2,0,3.97,1.77,3.97,3.97v14.06c0,2.2-1.77,3.97-3.97,3.97h-18.03v-22h18.03ZM728.99,595.48c0-.37-.31-.67-.67-.67h-14.06c-.37,0-.67.31-.67.67v14.06c0,.37.31.67.67.67h14.06c.37,0,.67-.31.67-.67v-14.06Z"/>
  <path class="cls-1" d="M764.49,594.81h-16.87v6.05h13.57v3.3h-13.57v6.05h16.87v3.3h-20.17v-22h20.17v3.3Z"/>
  <path class="cls-1" d="M794.93,591.51h3.3v22h-3.91l-14.79-17.6v17.6h-3.3v-22h3.91l14.79,17.6v-17.6Z"/>
  <path class="cls-1" d="M831.1,591.51v3.3h-9.35v18.7h-3.3v-18.7h-9.35v-3.3h22Z"/>
  <path class="cls-1" d="M842,591.53l3.28-.02v22l-3.28.02v-22Z"/>
  <path class="cls-1" d="M875.31,591.51c2.2,0,3.97,1.77,3.97,3.97v14.06c0,2.2-1.77,3.97-3.97,3.97h-18.03v-22h18.03ZM875.98,595.48c0-.37-.31-.67-.67-.67h-14.06c-.37,0-.67.31-.67.67v14.06c0,.37.31.67.67.67h14.06c.37,0,.67-.31.67-.67v-14.06Z"/>
  <path class="cls-1" d="M909.35,591.51c2.2,0,3.97,1.77,3.97,3.97v18.03h-3.3v-7.7h-15.4v7.7h-3.3v-18.03c0-2.2,1.77-3.97,3.97-3.97h14.06ZM910.02,602.51v-7.03c0-.37-.31-.67-.67-.67h-14.06c-.37,0-.67.31-.67.67v7.03h15.4Z"/>
  <path class="cls-1" d="M943.45,591.51c2.2,0,3.97,1.77,3.97,3.97v14.06c0,2.2-1.77,3.97-3.97,3.97h-18.03v-22h18.03ZM944.12,595.48c0-.37-.31-.67-.67-.67h-14.06c-.37,0-.67.31-.67.67v14.06c0,.37.31.67.67.67h14.06c.37,0,.67-.31.67-.67v-14.06Z"/>
  <path class="cls-1" d="M979.62,594.81h-16.87v6.05h13.57v3.3h-13.57v6.05h16.87v3.3h-20.17v-22h20.17v3.3Z"/>
</svg>