<svg width="1080" height="1080" viewBox="0 0 1080 1080" fill="none" xmlns="http://www.w3.org/2000/svg">
<path d="M657.638 439.424H943.357C957.512 439.424 968.98 427.955 968.98 413.799V139.625C968.98 125.469 957.512 114 943.357 114H136.843C122.689 114 111.221 125.469 111.221 139.625V393.207C111.221 402.691 116.614 411.012 125.275 414.882C133.956 418.772 143.72 417.228 150.797 410.912L194.665 371.713C203.065 364.194 207.877 353.446 207.877 342.178V236.29C207.877 222.134 219.345 210.665 233.5 210.665H846.721C860.875 210.665 872.343 222.134 872.343 236.29V317.094C872.343 331.25 860.875 342.719 846.721 342.719H657.558C446.982 344.163 251.344 440.547 120.804 607.189C114.489 615.269 111 625.455 111 635.922L111.221 920.603C111.221 946.187 132.031 967 157.614 967H425.229C439.384 967 450.852 955.531 450.852 941.375V768.959C450.852 754.803 462.32 743.334 476.475 743.334H943.377C957.532 743.334 969 731.865 969 717.709V672.294C969 658.138 957.532 646.669 943.377 646.669H379.838C365.683 646.669 354.215 658.138 354.215 672.294V844.71C354.215 858.866 342.747 870.335 328.593 870.335H230.573C218.062 870.335 207.897 860.169 207.897 847.658V661.807C207.897 656.273 209.802 651 213.25 646.97C324.944 516.359 486.96 440.727 657.678 439.424H657.638Z" fill="#7E2CFF"/>
<path d="M943.496 871H764.505C750.419 871 739 882.398 739 896.459V941.541C739 955.601 750.419 967 764.505 967H943.496C957.581 967 969 955.601 969 941.541V896.459C969 882.398 957.581 871 943.496 871Z" fill="#7E2CFF"/>
</svg>
