<svg width="971" height="965" viewBox="0 0 971 965" fill="none" xmlns="http://www.w3.org/2000/svg">
<path d="M618.631 368.153H941.98C957.999 368.153 970.977 355.178 970.977 339.163V28.9895C970.977 12.9749 957.999 0 941.98 0H29.2469C13.2281 0 0.249621 12.9749 0.249621 28.9895V315.867C0.249621 326.597 6.35307 336.01 16.155 340.388C25.9795 344.789 37.0294 343.042 45.0388 335.897L94.6836 291.551C104.191 283.044 109.636 270.886 109.636 258.138V138.346C109.636 122.332 122.614 109.357 138.633 109.357H832.616C848.635 109.357 861.614 122.332 861.614 138.346V229.761C861.614 245.775 848.635 258.75 832.616 258.75H618.54C380.232 260.383 158.827 369.423 11.0952 557.945C3.94802 567.087 0 578.61 0 590.451L0.249621 912.51C0.249621 941.455 23.8014 965 52.7532 965H355.614C371.632 965 384.611 952.025 384.611 936.01V740.955C384.611 724.941 397.589 711.966 413.608 711.966H942.003C958.022 711.966 971 698.991 971 682.976V631.598C971 615.584 958.022 602.609 942.003 602.609H304.244C288.226 602.609 275.247 615.584 275.247 631.598V826.653C275.247 842.668 262.269 855.643 246.25 855.643H135.321C121.162 855.643 109.659 844.142 109.659 829.988V619.735C109.659 613.474 111.814 607.508 115.717 602.949C242.12 455.189 425.475 369.627 618.676 368.153H618.631Z" fill="#7E2CFF"/>
</svg>
